<svg xmlns="http://www.w3.org/2000/svg" width="510" height="441" viewBox="0 0 510 441" shape-rendering="geometricPrecision">
  <path d="M 247.0,238.5 L 231.0,229.5 L 220.5,217.0 L 214.5,200.0 L 214.5,186.0 L 216.5,178.0 L 226.5,162.0 L 243.0,150.5 L 256.0,147.5 L 266.0,147.5 L 282.0,151.5 L 292.0,157.5 L 302.5,169.0 L 296.5,180.0 L 296.5,187.0 L 292.5,194.0 L 287.5,198.0 L 288.5,200.0 L 273.5,214.0 L 269.5,221.0 L 247.0,238.5 Z" fill="#fd9705"/>
  <path d="M 221.0,389.5 L 217.0,386.5 L 215.0,387.5 L 213.5,382.0 L 213.5,324.0 L 206.5,306.0 L 198.5,297.0 L 213.5,273.0 L 212.5,266.0 L 216.5,262.0 L 216.5,258.0 L 212.5,253.0 L 218.0,250.5 L 239.0,257.5 L 267.0,260.5 L 294.0,255.5 L 322.0,246.5 L 320.5,250.0 L 320.5,276.0 L 326.5,286.0 L 326.5,291.0 L 324.5,293.0 L 328.5,295.0 L 326.0,297.5 L 322.0,295.5 L 319.5,297.0 L 319.5,301.0 L 321.5,303.0 L 309.5,324.0 L 310.5,327.0 L 307.0,325.5 L 294.5,339.0 L 290.5,346.0 L 291.5,347.0 L 287.0,351.5 L 284.0,351.5 L 270.0,365.5 L 267.0,365.5 L 261.0,369.5 L 259.0,368.5 L 250.0,377.5 L 245.0,375.5 L 242.0,379.5 L 237.0,379.5 L 234.0,384.5 L 221.0,389.5 Z" fill="#fd9705"/>
  <path d="M 99.0,131.5 L 90.0,128.5 L 89.0,123.5 L 86.0,126.5 L 78.5,119.0 L 71.5,107.0 L 68.5,97.0 L 70.5,97.0 L 74.5,110.0 L 82.0,117.5 L 83.5,114.0 L 81.5,108.0 L 87.0,107.5 L 90.0,102.5 L 93.0,103.5 L 94.5,102.0 L 94.5,78.0 L 97.5,73.0 L 102.5,70.0 L 105.5,61.0 L 105.5,54.0 L 109.5,53.0 L 107.5,55.0 L 109.0,60.5 L 112.5,56.0 L 110.5,52.0 L 113.5,49.0 L 113.0,45.5 L 118.0,47.5 L 121.0,45.5 L 127.0,46.5 L 128.5,45.0 L 127.0,43.5 L 114.0,42.5 L 89.5,50.0 L 99.0,44.5 L 113.0,41.5 L 124.0,41.5 L 138.0,45.5 L 147.0,52.5 L 148.0,51.5 L 159.5,64.0 L 158.5,65.0 L 164.5,75.0 L 164.5,81.0 L 166.5,83.0 L 165.5,95.0 L 163.0,92.5 L 158.0,99.5 L 152.0,99.5 L 146.0,105.5 L 132.0,113.5 L 125.0,121.5 L 121.0,121.5 L 118.0,125.5 L 107.0,129.5 L 101.0,129.5 L 99.0,131.5 Z" fill="#0791b8"/>
  <path d="M 124.0,315.5 L 113.0,315.5 L 93.5,295.0 L 94.5,294.0 L 90.5,291.0 L 79.5,274.0 L 70.5,255.0 L 66.5,241.0 L 65.5,217.0 L 68.0,208.5 L 66.5,221.0 L 67.5,239.0 L 71.5,254.0 L 74.0,256.5 L 77.0,256.5 L 84.5,251.0 L 81.5,247.0 L 84.5,243.0 L 82.0,240.5 L 81.0,241.5 L 81.0,239.5 L 90.0,236.5 L 94.0,231.5 L 102.0,231.5 L 105.0,225.5 L 109.0,230.5 L 112.5,226.0 L 111.5,215.0 L 114.5,210.0 L 112.5,202.0 L 118.5,193.0 L 118.5,187.0 L 120.5,185.0 L 118.5,174.0 L 120.5,171.0 L 113.5,169.0 L 135.0,167.5 L 148.5,171.0 L 142.5,173.0 L 145.0,178.5 L 149.0,178.5 L 152.5,176.0 L 148.5,172.0 L 151.0,171.5 L 164.0,177.5 L 170.0,183.5 L 175.0,185.5 L 188.5,201.0 L 192.5,208.0 L 191.5,210.0 L 197.5,217.0 L 193.0,214.5 L 189.5,219.0 L 190.5,222.0 L 189.0,223.5 L 183.0,221.5 L 181.0,223.5 L 177.0,221.5 L 165.0,222.5 L 157.0,226.5 L 149.5,234.0 L 144.5,246.0 L 144.5,256.0 L 146.5,259.0 L 145.5,261.0 L 148.5,264.0 L 147.5,266.0 L 152.5,273.0 L 152.5,277.0 L 148.5,282.0 L 148.5,285.0 L 137.5,295.0 L 138.5,297.0 L 132.5,303.0 L 128.5,309.0 L 128.5,312.0 L 124.0,315.5 Z" fill="#0791b8"/>
  <path d="M 48.0,320.5 L 26.5,296.0 L 12.5,269.0 L 20.5,278.0 L 19.5,280.0 L 21.0,281.5 L 22.5,280.0 L 20.5,277.0 L 22.5,272.0 L 20.5,268.0 L 24.5,266.0 L 24.5,286.0 L 27.0,287.5 L 30.5,274.0 L 28.5,272.0 L 28.5,266.0 L 23.5,264.0 L 24.0,261.5 L 27.0,262.5 L 28.5,260.0 L 22.5,256.0 L 22.5,252.0 L 26.0,247.5 L 28.5,248.0 L 32.5,242.0 L 30.5,239.0 L 33.5,234.0 L 31.5,214.0 L 35.0,206.5 L 41.0,203.5 L 44.0,206.5 L 45.5,205.0 L 46.5,199.0 L 51.0,191.5 L 44.5,215.0 L 45.5,246.0 L 58.5,279.0 L 75.5,305.0 L 69.0,304.5 L 64.5,309.0 L 63.0,314.5 L 60.0,313.5 L 58.0,315.5 L 53.0,315.5 L 48.0,320.5 Z" fill="#0791b8"/>
  <path d="M 5.0,249.5 L 1.5,234.0 L 1.5,213.0 L 3.0,208.5 L 2.5,230.0 L 3.5,239.0 L 5.5,242.0 L 5.0,249.5 Z" fill="#0791b8"/>
  <path d="M 83.5,273.0 L 84.5,269.0 L 82.0,266.5 L 78.5,269.0 L 82.0,273.5 L 83.5,273.0 Z" fill="#0791b8"/>
  <path d="M 406.0,155.5 L 391.0,155.5 L 378.0,151.5 L 365.5,142.0 L 366.5,141.0 L 362.5,134.0 L 370.0,130.5 L 371.0,131.5 L 379.5,124.0 L 381.0,120.5 L 383.0,120.5 L 389.0,113.5 L 395.0,111.5 L 408.5,98.0 L 412.5,91.0 L 410.5,84.0 L 414.5,80.0 L 410.5,72.0 L 414.0,71.5 L 415.5,70.0 L 412.5,68.0 L 415.0,67.5 L 429.0,75.5 L 438.5,87.0 L 443.5,99.0 L 444.5,116.0 L 441.5,128.0 L 435.5,138.0 L 422.0,149.5 L 406.0,155.5 Z" fill="#6fa108"/>
  <path d="M 445.0,177.5 L 443.0,175.5 L 439.0,177.5 L 428.0,171.5 L 416.5,168.0 L 445.0,166.5 L 442.5,169.0 L 447.5,172.0 L 445.0,177.5 Z" fill="#6fa108"/>
  <path d="M 377.0,395.5 L 371.0,395.5 L 368.0,390.5 L 364.0,393.5 L 362.0,391.5 L 358.0,392.5 L 357.5,389.0 L 394.0,357.5 L 434.5,315.0 L 451.5,291.0 L 463.5,266.0 L 467.5,265.0 L 470.5,246.0 L 474.5,245.0 L 476.5,238.0 L 479.5,237.0 L 488.5,225.0 L 489.5,209.0 L 486.5,206.0 L 486.5,200.0 L 480.5,195.0 L 478.5,188.0 L 474.0,183.5 L 460.5,176.0 L 462.5,174.0 L 462.0,171.5 L 469.0,173.5 L 482.0,181.5 L 494.5,194.0 L 504.5,212.0 L 507.5,225.0 L 507.5,244.0 L 500.5,273.0 L 486.5,300.0 L 476.5,314.0 L 443.0,349.5 L 428.0,362.5 L 424.0,365.5 L 423.0,364.5 L 416.0,371.5 L 415.0,370.5 L 412.0,374.5 L 409.0,374.5 L 388.0,388.5 L 386.0,391.5 L 385.0,390.5 L 377.0,395.5 Z" fill="#6fa108"/>
  <path d="M 320.0,233.5 L 318.5,232.0 L 321.5,226.0 L 324.5,224.0 L 323.5,222.0 L 328.0,214.5 L 326.5,219.0 L 329.0,221.5 L 330.5,218.0 L 333.0,217.5 L 343.5,226.0 L 320.0,233.5 Z" fill="#6fa108"/>
  <path d="M 329.0,387.5 L 326.5,387.0 L 326.5,327.0 L 331.5,313.0 L 344.0,299.5 L 351.0,299.5 L 355.5,307.0 L 363.0,311.5 L 366.0,316.5 L 368.0,315.5 L 370.0,317.5 L 374.0,317.5 L 377.0,320.5 L 386.0,318.5 L 389.0,320.5 L 391.0,319.5 L 394.0,323.5 L 396.0,321.5 L 400.5,325.0 L 374.0,351.5 L 329.0,387.5 Z" fill="#6fa108"/>
  <path d="M 127.0,137.5 L 105.0,136.5 L 91.5,130.0 L 99.0,131.5 L 101.0,129.5 L 107.0,129.5 L 117.0,125.5 L 123.0,119.5 L 125.0,120.5 L 132.0,113.5 L 143.0,107.5 L 151.0,99.5 L 157.0,99.5 L 161.0,93.5 L 165.5,92.0 L 166.0,84.5 L 165.5,101.0 L 158.5,117.0 L 143.0,131.5 L 127.0,137.5 Z" fill="#0568a2"/>
  <path d="M 205.0,232.5 L 185.5,224.0 L 190.5,222.0 L 190.0,213.5 L 192.0,214.5 L 196.0,212.5 L 197.5,214.0 L 205.0,232.5 Z" fill="#0568a2"/>
  <path d="M 196.0,386.5 L 189.0,381.5 L 188.0,382.5 L 186.0,379.5 L 185.0,380.5 L 183.0,377.5 L 182.0,378.5 L 174.0,370.5 L 173.0,371.5 L 155.0,355.5 L 154.0,356.5 L 148.0,351.5 L 108.5,313.0 L 109.0,311.5 L 113.0,315.5 L 117.0,313.5 L 120.0,315.5 L 126.0,314.5 L 138.5,293.0 L 151.5,281.0 L 150.5,279.0 L 153.0,272.5 L 189.5,308.0 L 188.5,309.0 L 192.5,312.0 L 192.5,315.0 L 196.5,320.0 L 198.5,329.0 L 198.5,360.0 L 196.5,364.0 L 196.0,386.5 Z" fill="#0568a2"/>
  <path d="M 212.0,424.5 L 204.0,423.5 L 198.0,418.5 L 194.0,419.5 L 179.0,412.5 L 177.0,413.5 L 170.0,408.5 L 147.0,398.5 L 145.0,395.5 L 138.0,393.5 L 133.0,388.5 L 128.0,387.5 L 109.0,375.5 L 79.0,352.5 L 47.5,322.0 L 51.5,320.0 L 50.5,315.0 L 62.0,313.5 L 66.5,306.0 L 71.0,303.5 L 73.0,305.5 L 77.0,305.5 L 101.5,334.0 L 127.0,358.5 L 128.0,357.5 L 134.0,364.5 L 136.0,364.5 L 172.0,394.5 L 175.0,394.5 L 188.0,405.5 L 211.0,419.5 L 213.5,422.0 L 212.0,424.5 Z" fill="#0568a2"/>
  <path d="M 363.0,138.5 L 357.5,133.0 L 353.5,123.0 L 357.5,122.0 L 356.5,118.0 L 362.5,114.0 L 369.5,105.0 L 368.5,104.0 L 373.0,101.5 L 383.5,90.0 L 382.5,75.0 L 380.5,73.0 L 385.0,69.5 L 390.0,69.5 L 391.5,67.0 L 390.0,65.5 L 381.5,67.0 L 389.0,64.5 L 410.0,65.5 L 414.5,71.0 L 411.5,76.0 L 414.5,80.0 L 410.5,84.0 L 412.5,87.0 L 412.5,91.0 L 409.5,94.0 L 410.5,97.0 L 396.0,111.5 L 391.0,112.5 L 383.0,120.5 L 381.0,120.5 L 374.0,129.5 L 364.0,133.5 L 363.0,138.5 Z" fill="#89b809"/>
  <path d="M 466.0,266.5 L 463.5,265.0 L 468.5,247.0 L 467.5,217.0 L 456.5,194.0 L 440.5,178.0 L 442.0,176.5 L 444.0,178.5 L 446.5,176.0 L 446.5,172.0 L 441.5,169.0 L 446.0,166.5 L 461.0,171.5 L 463.0,177.5 L 476.0,184.5 L 478.5,187.0 L 479.5,193.0 L 486.5,200.0 L 485.5,203.0 L 489.5,209.0 L 488.5,215.0 L 490.5,217.0 L 488.5,219.0 L 488.5,227.0 L 479.5,236.0 L 478.5,244.0 L 476.0,243.5 L 474.0,246.5 L 472.0,245.5 L 470.5,247.0 L 469.5,258.0 L 466.0,266.5 Z" fill="#89b809"/>
  <path d="M 376.0,247.5 L 372.5,239.0 L 364.0,230.5 L 357.0,227.5 L 340.0,225.5 L 333.0,218.5 L 330.0,221.5 L 326.5,219.0 L 331.5,211.0 L 330.5,210.0 L 334.5,207.0 L 333.5,206.0 L 349.0,191.5 L 368.0,181.5 L 383.0,179.5 L 375.5,182.0 L 375.5,186.0 L 369.5,192.0 L 369.5,196.0 L 367.5,198.0 L 371.5,208.0 L 370.5,215.0 L 374.5,222.0 L 374.5,229.0 L 369.5,234.0 L 376.5,244.0 L 376.0,247.5 Z" fill="#89b809"/>
  <path d="M 396.0,326.5 L 395.0,322.5 L 394.0,323.5 L 391.0,320.5 L 389.0,321.5 L 386.0,318.5 L 377.0,320.5 L 373.0,317.5 L 364.0,315.5 L 363.5,313.0 L 359.0,311.5 L 350.0,299.5 L 346.5,299.0 L 371.5,271.0 L 376.5,258.0 L 377.0,247.5 L 379.0,256.5 L 381.0,251.5 L 385.0,251.5 L 392.0,260.5 L 397.0,258.5 L 403.0,260.5 L 402.5,267.0 L 412.0,272.5 L 414.0,271.5 L 419.0,273.5 L 421.5,278.0 L 420.5,281.0 L 426.0,283.5 L 429.5,290.0 L 420.5,303.0 L 412.5,310.0 L 412.5,313.0 L 401.0,324.5 L 399.0,323.5 L 396.0,326.5 Z" fill="#89b809"/>
  <path d="M 431.0,287.5 L 432.5,282.0 L 426.5,273.0 L 425.5,268.0 L 430.0,268.5 L 433.0,263.5 L 437.5,272.0 L 435.5,274.0 L 437.5,277.0 L 431.0,287.5 Z" fill="#89b809"/>
  <path d="M 82.0,117.5 L 75.5,112.0 L 68.5,96.0 L 69.5,81.0 L 75.5,66.0 L 81.5,61.0 L 80.5,60.0 L 84.0,55.5 L 98.0,46.5 L 114.0,42.5 L 130.0,44.5 L 128.0,46.5 L 119.0,46.5 L 117.5,48.0 L 120.5,51.0 L 119.0,52.5 L 114.0,49.5 L 111.5,52.0 L 112.5,57.0 L 108.0,63.5 L 106.5,61.0 L 107.5,56.0 L 106.0,54.5 L 104.5,56.0 L 104.5,66.0 L 102.5,71.0 L 96.5,75.0 L 93.5,84.0 L 95.5,98.0 L 94.5,103.0 L 90.0,102.5 L 87.0,107.5 L 81.5,109.0 L 84.5,116.0 L 82.0,117.5 Z" fill="#06a6c4"/>
  <path d="M 26.0,289.5 L 24.5,286.0 L 25.5,277.0 L 23.0,273.5 L 21.5,275.0 L 23.5,283.0 L 21.0,282.5 L 12.5,268.0 L 6.5,253.0 L 5.5,242.0 L 3.5,239.0 L 3.5,209.0 L 7.5,195.0 L 12.5,187.0 L 11.5,186.0 L 32.0,166.5 L 50.0,157.5 L 66.0,154.5 L 68.0,152.5 L 94.0,154.5 L 74.0,164.5 L 66.0,171.5 L 55.5,182.0 L 46.5,199.0 L 45.5,205.0 L 44.0,206.5 L 39.0,204.5 L 34.5,208.0 L 31.5,214.0 L 32.5,223.0 L 34.5,225.0 L 32.5,227.0 L 32.5,231.0 L 34.5,233.0 L 30.5,239.0 L 32.5,244.0 L 30.0,247.5 L 26.0,247.5 L 22.5,252.0 L 22.5,255.0 L 28.5,260.0 L 28.0,263.5 L 26.0,261.5 L 23.5,263.0 L 28.5,265.0 L 28.5,272.0 L 30.5,274.0 L 26.0,289.5 Z" fill="#06a6c4"/>
  <path d="M 76.0,258.5 L 74.0,258.5 L 71.5,254.0 L 66.5,231.0 L 67.5,213.0 L 70.5,204.0 L 79.5,190.0 L 92.0,178.5 L 114.0,169.5 L 120.0,169.5 L 118.5,176.0 L 120.5,179.0 L 120.5,185.0 L 118.5,187.0 L 118.5,193.0 L 112.5,202.0 L 114.5,209.0 L 111.5,215.0 L 113.5,217.0 L 111.5,222.0 L 112.5,226.0 L 108.0,231.5 L 106.0,228.5 L 103.0,231.5 L 97.0,230.5 L 87.0,237.5 L 81.5,246.0 L 84.5,251.0 L 76.0,258.5 Z" fill="#06a6c4"/>
  <path d="M 24.5,272.0 L 25.5,268.0 L 23.0,266.5 L 20.5,269.0 L 23.0,272.5 L 24.5,272.0 Z" fill="#06a6c4"/>
  <path d="M 268.0,240.5 L 257.0,240.5 L 247.5,238.0 L 249.0,234.5 L 254.0,233.5 L 265.0,223.5 L 267.0,223.5 L 273.5,214.0 L 286.5,202.0 L 288.5,199.0 L 287.5,198.0 L 292.5,194.0 L 296.5,186.0 L 296.5,180.0 L 300.5,172.0 L 303.0,170.5 L 309.5,188.0 L 309.5,202.0 L 305.5,214.0 L 300.5,222.0 L 288.0,233.5 L 268.0,240.5 Z" fill="#fc7305"/>
  <path d="M 329.0,294.5 L 323.5,293.0 L 326.5,290.0 L 326.5,286.0 L 320.5,276.0 L 320.5,250.0 L 326.0,245.5 L 341.0,243.5 L 351.5,250.0 L 354.5,256.0 L 354.5,262.0 L 349.5,274.0 L 329.0,294.5 Z" fill="#fc7305"/>
  <path d="M 263.0,427.5 L 245.0,418.5 L 227.0,406.5 L 219.5,398.0 L 221.5,396.0 L 217.5,394.0 L 218.5,393.0 L 216.5,390.0 L 218.0,387.5 L 228.0,387.5 L 234.0,384.5 L 237.0,378.5 L 242.0,379.5 L 245.0,375.5 L 250.0,376.5 L 257.0,369.5 L 265.0,365.5 L 270.0,365.5 L 281.0,352.5 L 285.0,352.5 L 290.5,347.0 L 292.5,341.0 L 311.0,321.5 L 311.5,383.0 L 308.5,394.0 L 304.5,401.0 L 295.0,409.5 L 263.0,427.5 Z" fill="#fc7305"/>
  <path d="M 356.0,124.5 L 353.5,122.0 L 351.5,113.0 L 351.5,101.0 L 356.5,89.0 L 363.5,80.0 L 362.5,79.0 L 370.0,73.5 L 390.0,65.5 L 392.0,68.5 L 381.5,73.0 L 383.5,90.0 L 374.0,101.5 L 369.5,103.0 L 370.5,105.0 L 364.5,112.0 L 356.5,118.0 L 357.5,122.0 L 356.0,124.5 Z" fill="#9ec608"/>
  <path d="M 430.0,289.5 L 424.0,281.5 L 421.5,283.0 L 417.0,272.5 L 412.0,272.5 L 402.5,267.0 L 403.5,262.0 L 402.0,260.5 L 397.0,258.5 L 394.0,261.5 L 384.0,251.5 L 377.5,255.0 L 376.5,244.0 L 369.5,234.0 L 374.5,228.0 L 374.5,222.0 L 370.5,215.0 L 371.5,212.0 L 369.5,209.0 L 369.5,202.0 L 367.5,200.0 L 369.5,192.0 L 375.5,186.0 L 374.0,181.5 L 395.0,178.5 L 413.0,182.5 L 430.0,192.5 L 441.5,206.0 L 448.5,223.0 L 448.5,248.0 L 445.5,254.0 L 444.5,262.0 L 437.5,270.0 L 438.5,273.0 L 437.0,275.5 L 434.0,265.5 L 430.5,269.0 L 431.0,273.5 L 428.0,267.5 L 425.5,269.0 L 427.0,273.5 L 430.5,274.0 L 429.5,277.0 L 432.5,281.0 L 430.0,289.5 Z" fill="#9ec608"/>
  <path d="M 273.0,69.5 L 268.5,60.0 L 269.5,58.0 L 262.5,45.0 L 253.0,32.5 L 251.5,34.0 L 255.5,40.0 L 257.5,49.0 L 264.5,63.0 L 267.5,65.0 L 267.5,68.0 L 263.0,69.5 L 251.0,64.5 L 238.5,52.0 L 233.5,43.0 L 229.5,29.0 L 229.5,12.0 L 232.0,5.5 L 240.0,6.5 L 254.0,13.5 L 271.5,32.0 L 275.5,45.0 L 276.5,62.0 L 273.0,69.5 Z" fill="#d9cb0a"/>
  <path d="M 268.0,98.5 L 268.5,89.0 L 275.5,76.0 L 279.5,73.0 L 278.5,72.0 L 284.0,66.5 L 294.0,66.5 L 298.0,63.5 L 302.0,63.5 L 304.5,55.0 L 312.0,47.5 L 325.5,39.0 L 324.0,37.5 L 319.0,38.5 L 288.0,59.5 L 286.5,57.0 L 288.5,47.0 L 299.0,33.5 L 310.0,26.5 L 325.0,20.5 L 348.0,19.5 L 351.5,23.0 L 346.5,41.0 L 339.0,51.5 L 324.0,63.5 L 311.0,69.5 L 287.0,68.5 L 284.5,72.0 L 285.5,73.0 L 279.5,78.0 L 280.5,79.0 L 268.0,98.5 Z" fill="#d9cb0a"/>
  <path d="M 199.0,296.5 L 175.5,275.0 L 169.5,265.0 L 169.5,249.0 L 178.0,242.5 L 185.0,241.5 L 197.0,243.5 L 217.5,252.0 L 215.5,255.0 L 216.5,263.0 L 213.5,266.0 L 212.5,276.0 L 207.5,281.0 L 204.5,290.0 L 201.5,292.0 L 202.5,295.0 L 199.0,296.5 Z" fill="#d9cb0a"/>
</svg>